<?xml version="1.0" encoding="iso-8859-1"?>
<!-- Generator: Adobe Illustrator 16.0.0, SVG Export Plug-In . SVG Version: 6.00 Build 0)  -->
<!DOCTYPE svg PUBLIC "-//W3C//DTD SVG 1.1//EN" "http://www.w3.org/Graphics/SVG/1.1/DTD/svg11.dtd">
<svg version="1.1" id="Capa_1" xmlns="http://www.w3.org/2000/svg" xmlns:xlink="http://www.w3.org/1999/xlink" x="0px" y="0px"
	 width="65.964px" height="65.964px" viewBox="0 0 65.964 65.964" style="enable-background:new 0 0 65.964 65.964;"
	 xml:space="preserve">
<g>
	<path d="M30.367,44.871c-0.509,0.278-0.857,0.812-0.857,1.436v2.197c-0.604,0.172-1.17,0.432-1.681,0.771l-1.74-1.382
		c-0.709-0.562-1.74-0.442-2.303,0.266c-0.562,0.71-0.444,1.741,0.265,2.305l1.645,1.307c-0.354,0.765-0.558,1.615-0.558,2.512
		c0,0.705,0.128,1.378,0.351,2.006l-1.744,1.452c-0.696,0.577-0.791,1.61-0.212,2.306c0.325,0.394,0.791,0.592,1.262,0.592
		c0.369,0,0.741-0.125,1.047-0.379l1.551-1.289c0.617,0.494,1.334,0.867,2.116,1.09v2.199c0,0.905,0.733,1.642,1.639,1.642
		c0.905,0,1.64-0.734,1.64-1.642v-2.199c0.604-0.17,1.17-0.43,1.68-0.771l1.74,1.384c0.303,0.236,0.662,0.354,1.019,0.354
		c0.483,0,0.963-0.213,1.287-0.619c0.561-0.709,0.442-1.74-0.267-2.305l-1.646-1.305c0.354-0.769,0.558-1.615,0.558-2.515
		c0-0.869-0.189-1.688-0.521-2.438l1.68-1.397c0.695-0.578,0.791-1.613,0.211-2.31c-0.58-0.693-1.612-0.791-2.309-0.211
		l-1.681,1.396c-0.529-0.362-1.119-0.64-1.752-0.817v-2.197c0-0.56-0.279-1.051-0.705-1.348c-0.057,0.002-0.112,0.012-0.17,0.012
		C31.39,44.969,30.876,44.93,30.367,44.871z M33.883,54.281c0,0.604-0.201,1.152-0.532,1.604c-0.083,0.07-0.16,0.147-0.229,0.237
		c-0.031,0.038-0.052,0.08-0.078,0.122c-0.492,0.473-1.158,0.77-1.893,0.77c-0.85,0-1.599-0.396-2.1-1.006
		c-0.059-0.127-0.129-0.252-0.223-0.365c-0.021-0.023-0.047-0.043-0.068-0.065c-0.21-0.387-0.341-0.823-0.341-1.295
		c0-0.618,0.214-1.185,0.563-1.644c0.07-0.062,0.14-0.125,0.199-0.197c0.031-0.039,0.052-0.081,0.079-0.123
		c0.492-0.475,1.157-0.77,1.891-0.77C32.658,51.551,33.883,52.776,33.883,54.281z M55.855,47.213
		c-0.354-0.424-0.979-0.48-1.401-0.13l-1.021,0.851c-0.32-0.221-0.681-0.389-1.062-0.498V46.1c0-0.549-0.447-0.996-0.996-0.996
		s-0.994,0.447-0.994,0.996v1.336c-0.367,0.104-0.711,0.263-1.021,0.468l-1.057-0.837c-0.43-0.342-1.057-0.27-1.396,0.16
		c-0.342,0.432-0.271,1.057,0.16,1.398l1,0.791c-0.215,0.467-0.338,0.979-0.338,1.526c0,0.427,0.076,0.836,0.213,1.218l-1.061,0.881
		c-0.422,0.354-0.479,0.979-0.127,1.399c0.195,0.237,0.479,0.358,0.766,0.358c0.225,0,0.449-0.074,0.637-0.229l0.941-0.782
		c0.375,0.303,0.811,0.527,1.283,0.663v1.335c0,0.551,0.446,0.996,0.996,0.996c0.549,0,0.994-0.445,0.994-0.996V54.45
		c0.367-0.104,0.711-0.263,1.021-0.468l1.057,0.837c0.184,0.146,0.4,0.216,0.617,0.216c0.295,0,0.584-0.129,0.781-0.376
		c0.34-0.435,0.268-1.06-0.162-1.397l-1-0.793c0.215-0.468,0.338-0.98,0.338-1.525c0-0.528-0.114-1.028-0.316-1.48l1.021-0.849
		C56.148,48.262,56.206,47.635,55.855,47.213z M52.71,51.916c-0.051,0.041-0.099,0.092-0.142,0.145
		c-0.018,0.021-0.03,0.05-0.047,0.074c-0.299,0.287-0.703,0.467-1.147,0.467c-0.515-0.002-0.97-0.241-1.272-0.611
		c-0.037-0.078-0.078-0.152-0.136-0.223c-0.014-0.017-0.028-0.024-0.043-0.041c-0.127-0.234-0.207-0.5-0.207-0.784
		c0-0.377,0.132-0.72,0.343-0.998c0.041-0.037,0.084-0.074,0.12-0.12c0.019-0.023,0.031-0.05,0.048-0.074
		c0.299-0.287,0.702-0.467,1.147-0.467c0.914,0,1.657,0.743,1.657,1.659C53.031,51.305,52.911,51.639,52.71,51.916z M17.235,43.934
		c-0.352-0.422-0.979-0.479-1.402-0.129l-1.021,0.852c-0.32-0.223-0.68-0.391-1.063-0.497v-1.336c0-0.551-0.445-0.996-0.995-0.996
		c-0.549,0-0.995,0.445-0.995,0.996v1.335c-0.367,0.104-0.71,0.264-1.021,0.471l-1.056-0.841c-0.431-0.341-1.056-0.271-1.398,0.161
		c-0.341,0.432-0.27,1.057,0.161,1.396l1,0.793c-0.216,0.466-0.338,0.98-0.338,1.525c0,0.428,0.077,0.836,0.213,1.219l-1.059,0.879
		c-0.422,0.354-0.48,0.98-0.128,1.402c0.197,0.236,0.48,0.357,0.766,0.357c0.224,0,0.45-0.074,0.636-0.229l0.942-0.784
		c0.375,0.304,0.81,0.527,1.284,0.664v1.334c0,0.551,0.446,0.998,0.995,0.998c0.55,0,0.995-0.447,0.995-0.998v-1.332
		c0.367-0.104,0.711-0.263,1.021-0.469l1.057,0.84c0.183,0.146,0.401,0.215,0.618,0.215c0.294,0,0.584-0.129,0.781-0.377
		c0.338-0.431,0.267-1.057-0.164-1.397l-0.999-0.793c0.215-0.466,0.338-0.979,0.338-1.525c0-0.528-0.115-1.026-0.317-1.481
		l1.02-0.848C17.529,44.984,17.587,44.357,17.235,43.934z M14.089,48.639c-0.05,0.043-0.098,0.093-0.14,0.146
		c-0.019,0.021-0.031,0.048-0.047,0.073c-0.299,0.288-0.703,0.469-1.149,0.469c-0.514-0.001-0.968-0.243-1.273-0.612
		c-0.036-0.076-0.078-0.151-0.135-0.222c-0.013-0.019-0.029-0.026-0.042-0.042c-0.127-0.232-0.207-0.5-0.207-0.785
		c0-0.377,0.13-0.72,0.341-0.996c0.042-0.039,0.085-0.076,0.121-0.121c0.019-0.022,0.032-0.051,0.047-0.074
		c0.299-0.287,0.703-0.467,1.148-0.467c0.915,0,1.659,0.743,1.659,1.658C14.412,48.031,14.289,48.366,14.089,48.639z M47.413,2.064
		c-3.336,0-6.582,0.893-9.443,2.59c-2.295-1.676-5.08-2.59-7.934-2.59c-5.886,0-10.962,3.728-12.764,9.215
		c-1.24-0.369-2.52-0.556-3.82-0.556C6.034,10.723,0,16.757,0,24.175c0,7.417,6.035,13.454,13.452,13.454
		c2.045,0,4.052-0.47,5.884-1.365c1.771,4.713,6.035,8.033,11.031,8.607c0.233-0.128,0.497-0.207,0.782-0.207
		c0.348,0,0.669,0.11,0.934,0.295c4.577-0.059,8.784-2.422,11.211-6.269c1.371,0.315,2.754,0.477,4.119,0.477
		c10.229,0,18.551-8.324,18.551-18.553S57.641,2.064,47.413,2.064z M47.413,36.816c-1.445,0-2.914-0.207-4.369-0.615
		c-0.53-0.148-1.092,0.091-1.353,0.574c-1.944,3.604-5.69,5.844-9.778,5.844c-5.082,0-9.501-3.443-10.75-8.375
		c-0.093-0.363-0.355-0.664-0.705-0.803c-0.14-0.057-0.288-0.082-0.434-0.082c-0.22,0-0.439,0.062-0.63,0.183
		c-1.786,1.136-3.84,1.736-5.941,1.736c-6.122,0-11.102-4.982-11.102-11.103c0-6.123,4.98-11.104,11.102-11.104
		c1.433,0,2.838,0.275,4.174,0.819c0.319,0.131,0.68,0.113,0.987-0.047c0.306-0.159,0.526-0.446,0.602-0.782
		c1.15-5.092,5.599-8.649,10.82-8.649c2.592,0,5.114,0.915,7.106,2.575c0.396,0.331,0.963,0.363,1.396,0.08
		c2.646-1.737,5.715-2.655,8.873-2.655c8.934,0,16.201,7.267,16.201,16.201S56.346,36.816,47.413,36.816z"/>
</g>
<g>
</g>
<g>
</g>
<g>
</g>
<g>
</g>
<g>
</g>
<g>
</g>
<g>
</g>
<g>
</g>
<g>
</g>
<g>
</g>
<g>
</g>
<g>
</g>
<g>
</g>
<g>
</g>
<g>
</g>
</svg>
