<?xml version="1.0" encoding="iso-8859-1"?>
<!-- Generator: Adobe Illustrator 19.0.0, SVG Export Plug-In . SVG Version: 6.00 Build 0)  -->
<svg version="1.1" id="Layer_1" xmlns="http://www.w3.org/2000/svg" xmlns:xlink="http://www.w3.org/1999/xlink" x="0px" y="0px"
	 viewBox="0 0 511.999 511.999" style="enable-background:new 0 0 511.999 511.999;" xml:space="preserve">
<g>
	<g>
		<g>
			<path d="M100.174,333.027H88.445c-4.751,0-8.604,3.852-8.604,8.604s3.852,8.604,8.604,8.604h11.729
				c4.751,0,8.604-3.852,8.604-8.604S104.926,333.027,100.174,333.027z"/>
			<path d="M266.553,333.027H128.486c-4.751,0-8.604,3.852-8.604,8.604s3.852,8.604,8.604,8.604h138.068
				c22.161,0,40.191,18.03,40.191,40.192c0,21.734-17.345,39.482-38.919,40.157c-0.416-0.061-0.839-0.104-1.272-0.104
				c-22.123,0-40.122-17.999-40.122-40.124c0-4.751-3.852-8.604-8.604-8.604s-8.604,3.852-8.604,8.604
				c0,31.023,24.771,56.352,55.57,57.286c0.568,0.118,1.156,0.182,1.758,0.182c31.65,0,57.398-25.747,57.398-57.397
				C323.951,358.776,298.202,333.027,266.553,333.027z"/>
			<path d="M454.602,333.027h-114.41c-4.751,0-8.604,3.852-8.604,8.604s3.852,8.604,8.604,8.604h114.41
				c22.161,0,40.191,18.03,40.191,40.192c0,21.734-17.345,39.482-38.919,40.157c-0.416-0.061-0.839-0.104-1.272-0.104
				c-22.124,0-40.124-17.999-40.124-40.124c0-4.751-3.852-8.604-8.604-8.604s-8.604,3.852-8.604,8.604
				c0,31.023,24.772,56.352,55.572,57.286c0.568,0.118,1.156,0.182,1.758,0.182c31.65,0,57.398-25.747,57.398-57.397
				C512,358.776,486.251,333.027,454.602,333.027z"/>
			<path d="M254.717,130.247c4.751,0,8.604-3.852,8.604-8.604c0-22.124,17.998-40.123,40.122-40.123
				c0.433,0,0.856-0.042,1.272-0.104c21.575,0.675,38.921,18.422,38.921,40.157c0,13.373-6.627,25.834-17.728,33.333
				c-3.937,2.661-4.973,8.008-2.312,11.945c1.663,2.461,4.374,3.788,7.137,3.788c1.657,0,3.333-0.477,4.809-1.475
				c15.844-10.703,25.302-28.494,25.302-47.591c0-31.65-25.75-57.397-57.4-57.397c-0.603,0-1.191,0.063-1.758,0.182
				c-30.799,0.936-55.57,26.264-55.57,57.286C246.113,126.395,249.966,130.247,254.717,130.247z"/>
			<path d="M376.913,239.82h72.016c31.648,0,57.396-25.748,57.396-57.398c0-31.651-25.747-57.399-57.396-57.399
				c-0.603,0-1.19,0.063-1.758,0.182c-30.8,0.936-55.572,26.264-55.572,57.286c0,4.751,3.852,8.604,8.604,8.604
				c4.751,0,8.604-3.852,8.604-8.604c0-22.124,17.999-40.124,40.124-40.124c0.433,0,0.856-0.042,1.272-0.104
				c21.573,0.675,38.916,18.424,38.916,40.16c0,22.162-18.029,40.191-40.189,40.191h-72.016c-4.751,0-8.604,3.852-8.604,8.604
				C368.31,235.968,372.162,239.82,376.913,239.82z"/>
			<path d="M474.074,280.996c-4.751,0-8.604,3.852-8.604,8.604c0,4.751,3.852,8.604,8.604,8.604h12.893
				c4.751,0,8.604-3.852,8.604-8.604c0-4.751-3.852-8.604-8.604-8.604H474.074z"/>
			<path d="M236.759,289.59c0-4.751-3.852-8.604-8.604-8.604H63.573c-25.566,0-46.366-20.799-46.366-46.364
				c0-25.567,20.8-46.368,46.366-46.368c4.741,0,9.413,0.711,13.887,2.112c2.663,0.835,5.56,0.327,7.779-1.362
				c2.219-1.686,3.483-4.345,3.392-7.131l-0.017-0.484c-0.02-0.576-0.042-1.155-0.042-1.739c0-36.027,29.307-65.336,65.33-65.336
				c30.256,0,57.05,21.395,63.709,50.872c0.537,2.371,2.05,4.406,4.167,5.599c2.12,1.196,4.643,1.437,6.949,0.667
				c3.665-1.224,7.477-1.843,11.329-1.843c11.726,0,22.72,5.768,29.41,15.43c2.053,2.966,5.742,4.337,9.23,3.431
				c3.85-0.997,7.83-1.501,11.831-1.501c25.923,0,47.013,21.087,47.013,47.009c0,25.922-21.09,47.01-47.013,47.01h-31.825
				c-4.751,0-8.604,3.852-8.604,8.604c0,4.751,3.852,8.604,8.604,8.604h31.825c0.44,0,0.874-0.025,1.313-0.033
				c0.279,0.027,0.56,0.043,0.846,0.043h151.61c4.751,0,8.604-3.852,8.604-8.604s-3.852-8.604-8.604-8.604H334.205
				c12.625-11.734,20.543-28.466,20.543-47.02c0-35.409-28.809-64.216-64.221-64.216c-3.525,0-7.041,0.288-10.507,0.86
				c-10.004-11.5-24.556-18.218-39.964-18.218c-2.697,0-5.382,0.204-8.034,0.612c-5.003-14.63-14.125-27.749-26.244-37.56
				c-14.617-11.831-33.039-18.347-51.876-18.347c-42.786,0-78.073,32.725-82.144,74.462c-2.705-0.347-5.439-0.523-8.185-0.523
				C28.52,171.047,0,199.566,0,234.622c0,35.053,28.52,63.571,63.573,63.571h164.582
				C232.907,298.193,236.759,294.341,236.759,289.59z"/>
		</g>
	</g>
</g>
<g>
</g>
<g>
</g>
<g>
</g>
<g>
</g>
<g>
</g>
<g>
</g>
<g>
</g>
<g>
</g>
<g>
</g>
<g>
</g>
<g>
</g>
<g>
</g>
<g>
</g>
<g>
</g>
<g>
</g>
</svg>
